<svg width="29" height="29" viewBox="0 0 29 29" fill="none" xmlns="http://www.w3.org/2000/svg">
<path d="M28.9393 24.5163C28.9393 25.5651 28.5227 26.5709 27.7812 27.3124C27.0396 28.054 26.0338 28.4706 24.9851 28.4706H4.423C3.37427 28.4706 2.36849 28.054 1.62692 27.3124C0.885357 26.5709 0.46875 25.5651 0.46875 24.5163V3.95425C0.46875 2.90552 0.885357 1.89974 1.62692 1.15817C2.36849 0.416607 3.37427 0 4.423 0H24.9851C26.0338 0 27.0396 0.416607 27.7812 1.15817C28.5227 1.89974 28.9393 2.90552 28.9393 3.95425V24.5163Z" fill="#ECECEE"/>
<path d="M20.2031 11.0042C20.1551 11.0262 20.1056 11.048 20.0549 11.0695C19.7813 11.1854 19.6365 10.8147 19.8337 10.5926C20.0026 10.4024 19.7815 10.2216 19.5453 10.3159C19.2937 10.4165 19.0254 10.5068 18.7829 10.5735C18.587 10.6273 18.3851 10.5524 18.2238 10.4288C17.8388 10.1338 17.3502 10 16.8193 10C15.5726 10 14.7031 11.0918 14.7031 12.3684C14.7031 12.8916 14.2733 13.3231 13.7658 13.1956C12.6668 12.9196 11.6252 12.2002 10.7845 11.3768C10.3681 10.9689 9.66275 11.0546 9.66421 11.6375C9.66421 12.1674 9.95388 12.7022 10.318 13.1321C10.5024 13.3499 10.3643 13.6339 10.1009 13.524C9.93864 13.4563 9.79142 13.3865 9.68495 13.3287C9.67432 13.3229 9.66146 13.3307 9.66146 13.3428C9.66146 14.0926 10.0019 14.6813 10.536 15.0526C10.7466 15.1991 10.9565 15.6208 10.702 15.6532C10.5378 15.6741 10.2056 15.8458 10.2959 15.9844C10.4227 16.1788 10.6045 16.3485 10.8195 16.4931C11.4286 16.9026 11.6064 17.7837 10.8865 17.9265C10.4655 18.01 10.0427 18.0526 9.66146 18.0526C9.54795 18.0526 9.49862 18.2205 9.59935 18.2728C10.5517 18.7675 11.7566 19 12.8698 19C17.0209 19 19.2865 15.7231 19.2865 12.6668C19.2865 12.3329 19.4535 12.0233 19.6728 11.7714C19.8671 11.5484 20.0101 11.3025 20.2031 11.0042Z" fill="#3C50E0"/>
</svg>
