<svg width="29" height="29" viewBox="0 0 29 29" fill="none" xmlns="http://www.w3.org/2000/svg">
<path d="M24.9118 0H3.55882C1.59613 0 0 1.59613 0 3.55882V24.9118C0 26.8745 1.59613 28.4706 3.55882 28.4706H24.9118C26.8745 28.4706 28.4706 26.8745 28.4706 24.9118V3.55882C28.4706 1.59613 26.8745 0 24.9118 0Z" fill="#ECECEE"/>
<path fill-rule="evenodd" clip-rule="evenodd" d="M17.4775 13.9074C17.7273 13.2897 17.2727 12.6154 16.6063 12.6154C16.0874 12.6154 15.6667 12.1947 15.6667 11.6757V10.7692C15.6667 10.2597 16.0848 10.3077 16.6 10.3077C17.1155 10.3077 17.5333 9.88982 17.5333 9.37436V9.15385C17.5333 8.51659 17.0167 8 16.3795 8H15.6667C14.9241 8 14.2119 8.29176 13.6868 8.81109C13.1617 9.33042 12.8667 10.0348 12.8667 10.7692V11.6821C12.8667 12.1975 12.4488 12.6154 11.9333 12.6154C11.4179 12.6154 11 13.0333 11 13.5487V13.9897C11 14.5052 11.4179 14.9231 11.9333 14.9231C12.4488 14.9231 12.8667 15.3409 12.8667 15.8564V18.6C12.8667 19.3732 13.4935 20 14.2667 20C15.0399 20 15.6667 19.3732 15.6667 18.6V15.7593C15.6667 15.2975 16.041 14.9231 16.5029 14.9231C16.8436 14.9231 17.1503 14.7163 17.2781 14.4004L17.4775 13.9074Z" fill="#3C50E0"/>
</svg>
